<svg xmlns="http://www.w3.org/2000/svg" xmlns:xlink="http://www.w3.org/1999/xlink" width="576.723" height="469.062" viewBox="0 0 576.723 469.062">
  <defs>
    <linearGradient id="linear-gradient" x1="0.5" x2="0.5" y2="1" gradientUnits="objectBoundingBox">
      <stop offset="0" stop-color="#795ce8"/>
      <stop offset="1" stop-color="#9784cc"/>
    </linearGradient>
    <filter id="Path_3" x="0" y="0" width="576.723" height="469.062" filterUnits="userSpaceOnUse">
      <feOffset dy="6" input="SourceAlpha"/>
      <feGaussianBlur stdDeviation="7.5" result="blur"/>
      <feFlood flood-color="#795ce8" flood-opacity="0.502"/>
      <feComposite operator="in" in2="blur"/>
      <feComposite in="SourceGraphic"/>
    </filter>
  </defs>
  <g transform="matrix(1, 0, 0, 1, 0, 0)" filter="url(#Path_3)">
    <g id="Path_3-2" data-name="Path 3" transform="translate(81.89 -33.19)" fill="url(#linear-gradient)">
      <path d="M 290.3086853027344 473.2512817382812 C 277.8593139648438 473.2512817382812 266.0088500976562 471.0464477539062 255.0863952636719 466.6980590820312 C 249.3923950195312 464.4312133789062 243.8680877685547 461.5438842773438 238.6668548583984 458.1164245605469 C 233.3046264648438 454.5828857421875 228.1517791748047 450.3866577148438 223.3513946533203 445.644287109375 C 185.4532318115234 408.2041931152344 139.6360778808594 378.3558349609375 95.32746887207031 349.4902954101562 C 54.66547012329102 323.0003662109375 16.258544921875 297.9795227050781 -12.19153118133545 269.4766540527344 C -19.50814628601074 262.1465148925781 -25.99899291992188 254.7248992919922 -31.48368453979492 247.41796875 C -37.32445526123047 239.6367492675781 -42.27714538574219 231.651123046875 -46.20414733886719 223.6831359863281 C -50.33853149414062 215.2942810058594 -53.49776077270508 206.5990447998047 -55.59407043457031 197.8388977050781 C -57.7840690612793 188.6873626708984 -58.89453125 179.1321258544922 -58.89453125 169.4388275146484 C -58.89453125 162.29736328125 -58.34699249267578 155.4032897949219 -57.26707077026367 148.9482879638672 C -56.21514511108398 142.6605072021484 -54.62822341918945 136.6104431152344 -52.55030059814453 130.9662017822266 C -50.52883911132812 125.4754333496094 -47.98491668701172 120.2117462158203 -44.98922348022461 115.3212814331055 C -42.07891464233398 110.5702056884766 -38.65845489501953 106.0348205566406 -34.82291412353516 101.8412094116211 C -31.10276222229004 97.77374267578125 -26.88468551635742 93.91028594970703 -22.28583908081055 90.35805511474609 C -17.83522415161133 86.92044067382812 -12.89868450164795 83.6744384765625 -7.613223552703857 80.710205078125 C -2.512838840484619 77.84982299804688 3.062007427215576 75.16805267333984 8.956392288208008 72.73935699462891 C 14.62423801422119 70.404052734375 20.75600814819336 68.23343658447266 27.18131446838379 66.28781890869141 C 49.97669982910156 59.38528442382812 77.64100646972656 54.87236022949219 111.7551574707031 52.49113082885742 C 142.1808471679688 50.36728286743164 173.6576232910156 50.18959045410156 203.2902374267578 50.18959045410156 C 206.6372375488281 50.18959045410156 210.0107727050781 50.19205093383789 213.2732391357422 50.19435882568359 C 216.4727020263672 50.1966667175293 219.7810821533203 50.19905090332031 223 50.19905090332031 C 243.8518524169922 50.19905090332031 261.4662475585938 52.20512771606445 276.849609375 56.33197402954102 C 291.1617736816406 60.17136001586914 303.7420959472656 65.92382049560547 315.3092346191406 73.91782379150391 C 325.4649963378906 80.93643951416016 335.0829162597656 89.79989624023438 345.5773010253906 101.8117446899414 C 355.0997009277344 112.711051940918 364.6548461914062 125.4269790649414 374.7710876464844 138.8895874023438 C 393.3984069824219 163.6786651611328 414.5110778808594 191.7752075195312 445.6439208984375 223.3510589599609 C 453.3632507324219 231.1801300048828 459.4697875976562 240.0079040527344 463.7938537597656 249.5891265869141 C 467.9043884277344 258.6971435546875 470.4666137695312 268.6185913085938 471.4093933105469 279.0779724121094 C 472.3092346191406 289.0612182617188 471.7457885742188 299.6393737792969 469.734619140625 310.5186767578125 C 467.8030090332031 320.9675903320312 464.5271606445312 331.7548217773438 459.9980163574219 342.580810546875 C 456.49609375 350.95166015625 452.2210083007812 359.3960571289062 447.2916870117188 367.679443359375 C 442.4452514648438 375.8235168457031 436.9246215820312 383.8829040527344 430.8831481933594 391.6337585449219 C 424.8873291015625 399.3259887695312 418.33447265625 406.7709655761719 411.4067687988281 413.7619018554688 C 404.4619445800781 420.7702026367188 397.0909423828125 427.371826171875 389.49853515625 433.3835144042969 C 381.8122253417969 439.4696044921875 373.8374633789062 444.9992980957031 365.7958679199219 449.8191223144531 C 357.5829162597656 454.7415771484375 349.21923828125 458.971435546875 340.9370727539062 462.3912963867188 C 332.4179992675781 465.9089660644531 323.8805541992188 468.6119689941406 315.5619201660156 470.42529296875 C 306.9595336914062 472.3005065917969 298.4630737304688 473.2512817382812 290.3086853027344 473.2512817382812 Z" stroke="none"/>
      <path d="M 203.2897644042969 50.6895751953125 C 173.6659240722656 50.6895751953125 142.1991577148438 50.8671875 111.7896118164062 52.9898681640625 C 77.71331787109375 55.3685302734375 50.0850830078125 59.87481689453125 27.32601928710938 66.766357421875 C 20.91607666015625 68.707275390625 14.79971313476562 70.8724365234375 9.146697998046875 73.20166015625 C 3.270782470703125 75.6226806640625 -2.28582763671875 78.295654296875 -7.3687744140625 81.14630126953125 C -12.63299560546875 84.09857177734375 -17.54898071289062 87.33096313476562 -21.98028564453125 90.75375366210938 C -26.55645751953125 94.2884521484375 -30.75323486328125 98.13229370117188 -34.4539794921875 102.1785888671875 C -38.26806640625 106.3488159179688 -41.66925048828125 110.8585205078125 -44.56292724609375 115.5824279785156 C -47.54144287109375 120.4449768066406 -50.07098388671875 125.6788940429688 -52.0810546875 131.1389770507812 C -54.148193359375 136.7539672851562 -55.7271728515625 142.773681640625 -56.77392578125 149.0307312011719 C -57.84930419921875 155.4585876464844 -58.39453125 162.3248901367188 -58.39453125 169.4388122558594 C -58.39453125 179.0930480957031 -57.2886962890625 188.6090393066406 -55.10784912109375 197.7225036621094 C -53.0201416015625 206.4465942382812 -49.87359619140625 215.1065979003906 -45.75567626953125 223.4620666503906 C -41.8424072265625 231.4023742675781 -36.906005859375 239.3612976074219 -31.0838623046875 247.1178283691406 C -25.61309814453125 254.4060668945312 -19.13775634765625 261.809814453125 -11.83761596679688 269.1234436035156 C 16.57546997070312 297.5892028808594 54.96099853515625 322.5961303710938 95.60040283203125 349.0713500976562 C 139.9298400878906 377.9505004882812 185.7685546875 407.8128967285156 223.7027893066406 445.28857421875 C 228.4798583984375 450.0079956054688 233.6070861816406 454.183349609375 238.9419250488281 457.698974609375 C 244.1148529052734 461.1077270507812 249.6087799072266 463.9791870117188 255.2713165283203 466.2335205078125 C 266.1346435546875 470.558349609375 277.9229125976562 472.7512817382812 290.3087158203125 472.7512817382812 C 298.4273986816406 472.7512817382812 306.8880004882812 471.8043518066406 315.4554748535156 469.9367370605469 C 323.7453002929688 468.1297607421875 332.25439453125 465.4355163574219 340.746337890625 461.9291381835938 C 349.005615234375 458.5186767578125 357.3469848632812 454.2999877929688 365.5387878417969 449.3901977539062 C 373.5619201660156 444.5815124511719 381.5187683105469 439.0641479492188 389.1881713867188 432.9915161132812 C 396.7648620605469 426.9921875 404.1207885742188 420.404052734375 411.0516357421875 413.4099731445312 C 417.9654541015625 406.4330444335938 424.5050964355469 399.0029907226562 430.48876953125 391.3262939453125 C 436.5174560546875 383.5919189453125 442.0262451171875 375.5498962402344 446.8619995117188 367.4236450195312 C 451.7793884277344 359.1603393554688 456.0437622070312 350.7371215820312 459.5367736816406 342.3879089355469 C 464.0521545410156 331.5946655273438 467.3177795410156 320.8417358398438 469.242919921875 310.4278259277344 C 471.245849609375 299.5932922363281 471.8071594238281 289.0607299804688 470.911376953125 279.1228332519531 C 469.9736328125 268.7192077636719 467.4256286621094 258.851806640625 463.3380737304688 249.7948303222656 C 459.0384826660156 240.2677307128906 452.9654541015625 231.4888916015625 445.2879333496094 223.7020568847656 C 414.1314697265625 192.1023559570312 393.0081787109375 163.9915771484375 374.3713989257812 139.1899719238281 C 364.2608642578125 125.7349853515625 354.7109985351562 113.026123046875 345.2007751464844 102.1407470703125 C 334.7343139648438 90.160888671875 325.1457824707031 81.3236083984375 315.0250244140625 74.3291015625 C 303.5057067871094 66.36822509765625 290.9760131835938 60.63922119140625 276.7200927734375 56.81488037109375 C 261.3795471191406 52.6995849609375 243.8075408935547 50.69903564453125 223 50.69903564453125 C 219.7809448242188 50.69903564453125 216.4723815917969 50.6966552734375 213.272705078125 50.6943359375 C 210.0102233886719 50.69207763671875 206.6366271972656 50.6895751953125 203.2897644042969 50.6895751953125 M 203.289794921875 49.6895751953125 C 209.9407653808594 49.6895751953125 216.5202941894531 49.69903564453125 223 49.69903564453125 C 346.1594848632812 49.69903564453125 344.5960693359375 120.1533508300781 446 222.9999694824219 C 528.879638671875 307.0587463378906 399.2268676757812 473.7513122558594 290.3086853027344 473.7513122558594 C 265.9645690917969 473.7513122558594 242.6696472167969 465.431884765625 223 445.9999694824219 C 115.3263244628906 339.6278076171875 -59.39453125 292.5982971191406 -59.39453125 169.4388122558594 C -59.39453125 52.75897216796875 83.52590942382812 49.6895751953125 203.289794921875 49.6895751953125 Z" stroke="none" fill="#707070"/>
    </g>
  </g>
</svg>
