<svg id="Group_8" data-name="Group 8" xmlns="http://www.w3.org/2000/svg" xmlns:xlink="http://www.w3.org/1999/xlink" width="28" height="28" viewBox="0 0 28 28">
  <defs>
    <clipPath id="clip-path">
      <rect id="Rectangle_16" data-name="Rectangle 16" width="28" height="28" fill="none"/>
    </clipPath>
  </defs>
  <g id="Group_7" data-name="Group 7" clip-path="url(#clip-path)">
    <path id="Path_5" data-name="Path 5" d="M20.064,7.723a12.129,12.129,0,0,1,2.372-3.344A13.89,13.89,0,0,1,30.4.207,14,14,0,0,1,42.1,3.394c.214.181.267.286.034.51-1.2,1.148-2.375,2.315-3.559,3.476-.122.119-.2.264-.419.07a8.332,8.332,0,0,0-11.03.241,8.915,8.915,0,0,0-2.37,3.545c-.074-.047-.152-.09-.221-.142Q22.3,9.409,20.064,7.723" transform="translate(-18.524 0)" fill="#d7282a"/>
    <path id="Path_6" data-name="Path 6" d="M24.577,222.194a9.337,9.337,0,0,0,1.75,2.927,8.5,8.5,0,0,0,7.485,2.809,9.182,9.182,0,0,0,3.831-1.308c.113.1.221.205.34.3q2.072,1.585,4.148,3.167a11.949,11.949,0,0,1-5.351,2.865,14.62,14.62,0,0,1-13.086-2.587,13.051,13.051,0,0,1-3.783-4.62l4.666-3.549" transform="translate(-18.383 -205.485)" fill="#45ac43"/>
    <path id="Path_7" data-name="Path 7" d="M195.2,164.235q-2.074-1.583-4.148-3.167c-.119-.091-.227-.2-.34-.3a7.15,7.15,0,0,0,2.231-2.58,8.855,8.855,0,0,0,.484-1.3c.094-.306.065-.425-.322-.422-2.3.019-4.6.01-6.9.009-.488,0-.488,0-.488-.494,0-1.529.007-3.057-.007-4.586,0-.295.05-.408.389-.407q6.368.018,12.736,0c.229,0,.373.016.413.29a15.086,15.086,0,0,1-1.839,10.325,10.355,10.355,0,0,1-2.2,2.628" transform="translate(-171.455 -139.634)" fill="#5d7fbe"/>
    <path id="Path_8" data-name="Path 8" d="M6.194,111.68l-4.666,3.549a12.48,12.48,0,0,1-1.4-4.418,13.585,13.585,0,0,1,1.2-7.724c.064-.135.145-.263.217-.394q2.234,1.686,4.468,3.371c.07.053.148.095.222.142a8.675,8.675,0,0,0-.035,5.474" transform="translate(0 -94.97)" fill="#f4c300"/>
  </g>
</svg>
