<svg xmlns="http://www.w3.org/2000/svg" xmlns:xlink="http://www.w3.org/1999/xlink" width="233.449" height="67.598" viewBox="0 0 233.449 67.598">
  <defs>
    <linearGradient id="linear-gradient" x1="0.01" y1="0.401" x2="0.958" y2="0.528" gradientUnits="objectBoundingBox">
      <stop offset="0" stop-color="#3e18ba"/>
      <stop offset="1" stop-color="#754ef4"/>
    </linearGradient>
    <linearGradient id="linear-gradient-2" x1="0" y1="0.434" x2="1" y2="0.5" xlink:href="#linear-gradient"/>
  </defs>
  <g id="Logo" transform="translate(-128.201 -50)">
    <path id="Path_1" data-name="Path 1" d="M56,28A28,28,0,0,1,0,28C0,12.536,56,12.536,56,28Z" transform="translate(167.799 38.402) rotate(45)" fill="url(#linear-gradient)"/>
    <path id="Path_2" data-name="Path 2" d="M10.05-21.224H1.68V-.545h8.37c6.75,0,11.04-4.37,11.04-10.354C21.09-16.971,16.8-21.224,10.05-21.224ZM7.56-5.62V-16.237H9.6c3.39,0,5.52,1.907,5.52,5.338,0,3.4-2.13,5.28-5.52,5.28Zm23.73-7.039A2.289,2.289,0,0,1,33.81-10.4H28.62A2.522,2.522,0,0,1,31.29-12.659Zm8.16,6.423H33.18a2.2,2.2,0,0,1-2.1,1.291c-1.32,0-2.37-.763-2.49-2.669H39.72a10.192,10.192,0,0,0,.09-1.349c0-5.1-3.51-8.242-8.49-8.242-5.04,0-8.55,3.2-8.55,8.418,0,5.25,3.57,8.447,8.55,8.447C35.52-.34,38.67-2.862,39.45-6.236Zm16.92.851c-.03-6.247-9-4.37-9-6.717,0-.616.51-1,1.47-1a1.97,1.97,0,0,1,2.19,1.643h5.31c-.39-3.256-2.79-5.749-7.38-5.749-4.56,0-6.99,2.376-6.99,5.25,0,6.042,8.94,4.077,8.94,6.482,0,.587-.57,1.056-1.56,1.056a2.071,2.071,0,0,1-2.31-1.672h-5.7C41.58-2.8,44.7-.34,49.38-.34,53.73-.34,56.37-2.51,56.37-5.385Zm2.88,4.84h5.88V-17H59.25Zm2.97-17.98c2.07,0,3.42-1.291,3.42-2.933,0-1.672-1.35-2.992-3.42-2.992-2.1,0-3.45,1.32-3.45,2.992C58.77-19.816,60.12-18.525,62.22-18.525Zm5.31,9.738c0,5.25,3.18,8.447,7.17,8.447a5.494,5.494,0,0,0,4.95-2.493V-.721c0,2.552-1.35,3.285-3,3.285-1.5,0-2.52-.616-2.76-1.672H68.1c.42,4.077,3.66,6.658,8.91,6.658,6.06,0,8.52-3.872,8.52-8.271V-17H79.65v2.288a5.494,5.494,0,0,0-4.95-2.493C70.71-17.205,67.53-14.038,67.53-8.787Zm12.12,0c0,2.229-1.41,3.432-3.06,3.432-1.68,0-3.06-1.232-3.06-3.432,0-2.229,1.38-3.4,3.06-3.4A3.08,3.08,0,0,1,79.65-8.787Zm20.7,8.242h5.88v-9.591c0-4.312-2.43-7.01-6.33-7.01a6.116,6.116,0,0,0-5.13,2.493V-17H88.89V-.545h5.88V-9.374A2.693,2.693,0,0,1,97.59-12.4c1.68,0,2.76,1.115,2.76,3.021Zm9.12,0h5.88V-17h-5.88Zm2.97-17.98c2.07,0,3.42-1.291,3.42-2.933,0-1.672-1.35-2.992-3.42-2.992-2.1,0-3.45,1.32-3.45,2.992C108.99-19.816,110.34-18.525,112.44-18.525ZM130.17-.545h5.88v-9.591c0-4.312-2.43-7.01-6.33-7.01a6.116,6.116,0,0,0-5.13,2.493V-17h-5.88V-.545h5.88V-9.374a2.693,2.693,0,0,1,2.82-3.021c1.68,0,2.76,1.115,2.76,3.021Zm8.16-8.242c0,5.25,3.18,8.447,7.17,8.447a5.494,5.494,0,0,0,4.95-2.493V-.721c0,2.552-1.35,3.285-3,3.285-1.5,0-2.52-.616-2.76-1.672H138.9c.42,4.077,3.66,6.658,8.91,6.658,6.06,0,8.52-3.872,8.52-8.271V-17h-5.88v2.288a5.494,5.494,0,0,0-4.95-2.493C141.51-17.205,138.33-14.038,138.33-8.787Zm12.12,0c0,2.229-1.41,3.432-3.06,3.432-1.68,0-3.06-1.232-3.06-3.432,0-2.229,1.38-3.4,3.06-3.4A3.08,3.08,0,0,1,150.45-8.787Z" transform="translate(205.32 91.45)" fill="url(#linear-gradient-2)"/>
  </g>
</svg>
