<svg xmlns="http://www.w3.org/2000/svg" width="19.978" height="18.887" viewBox="0 0 19.978 18.887">
  <g id="star_copy_4" data-name="star copy 4" transform="translate(1 1)">
    <path id="Path" d="M8.73,0l2.7,5.387,6.032.869-4.365,4.191,1.03,5.921-5.4-2.8-5.4,2.8,1.03-5.921L0,6.257l6.032-.869L8.73,0Z" transform="translate(0.259 0.259)" fill="#ff931e"/>
    <path id="Path_-_Outline" data-name="Path - Outline" d="M8.989-1a1.259,1.259,0,0,1,1.126.7l2.4,4.8,5.381.775a1.259,1.259,0,0,1,.692,2.154l-3.882,3.727.915,5.261a1.259,1.259,0,0,1-1.82,1.334l-4.816-2.5-4.816,2.5a1.259,1.259,0,0,1-1.82-1.334l.915-5.261L-.613,7.424A1.259,1.259,0,0,1,.08,5.269L5.46,4.494l2.4-4.8A1.259,1.259,0,0,1,8.989-1Zm6,8.394-3.479-.5a1.259,1.259,0,0,1-.946-.683L8.989,3.071,7.417,6.21a1.259,1.259,0,0,1-.946.683l-3.479.5L5.5,9.8a1.259,1.259,0,0,1,.368,1.124L5.27,14.34l3.14-1.628a1.259,1.259,0,0,1,1.159,0l3.14,1.628-.595-3.418A1.259,1.259,0,0,1,12.482,9.8Z" transform="translate(0 0)" fill="#ff931e"/>
  </g>
</svg>
